<?xml version="1.0" encoding="utf-8"?>
<svg width="466.69999999999993" height="104.60517241379308" viewBox="46.153 65.7 65.7 51.507" class="looka-1j8o68f" xmlns="http://www.w3.org/2000/svg">
  <defs id="SvgjsDefs3103"/>
  <g id="SvgjsG3105" featurekey="symbolFeature-0" transform="matrix(0.648705, 0, 0, 0.648705, 45.994942, 60.545643)" fill="#6356e5">
    <path xmlns="http://www.w3.org/2000/svg" d="M32.517,23.508l-9.49,0.992c1.838-0.073,3.573,1.561,3.987,3.853c0.415,2.292-0.64,4.431-2.387,5.004l9.238-2.393  c1.66-0.3,2.703-2.213,2.331-4.271C35.824,24.634,34.177,23.207,32.517,23.508z"/>
    <path xmlns="http://www.w3.org/2000/svg" d="M41.146,22.664l-7.824,0.817c1.515-0.06,2.945,1.286,3.287,3.177c0.342,1.889-0.528,3.653-1.968,4.125l3.218-1.75  l2.728,0.208l1.67-0.431c1.368-0.248,2.229-1.824,1.922-3.522C43.872,23.591,42.515,22.417,41.146,22.664z"/>
    <path xmlns="http://www.w3.org/2000/svg" d="M48.104,21.972l-6.343,0.664c1.229-0.049,2.388,1.042,2.665,2.575c0.277,1.532-0.427,2.961-1.595,3.344l6.173-1.599  c1.111-0.201,1.808-1.479,1.559-2.855C50.315,22.725,49.215,21.771,48.104,21.972z"/>
    <path xmlns="http://www.w3.org/2000/svg" d="M17.661,44.638c-7.246,1.584-11.607,9.778-9.744,18.297c1.864,8.521,9.248,14.14,16.493,12.554  c7.246-1.585,11.608-9.774,9.744-18.295C32.291,48.675,24.906,43.052,17.661,44.638z M22.176,47.449  c0.512-0.113,1.018,0.213,1.13,0.725c0.112,0.513-0.212,1.017-0.724,1.13c-0.512,0.111-1.018-0.213-1.13-0.725  C21.339,48.066,21.664,47.559,22.176,47.449z M18.251,47.335c0.512-0.113,1.018,0.213,1.13,0.725  c0.112,0.513-0.212,1.017-0.724,1.13c-0.512,0.111-1.019-0.213-1.13-0.725C17.415,47.953,17.739,47.449,18.251,47.335z M14.26,49.18  c0.512-0.11,1.018,0.213,1.13,0.726c0.112,0.512-0.211,1.016-0.724,1.13c-0.512,0.11-1.018-0.213-1.13-0.726  C13.424,49.797,13.748,49.293,14.26,49.18z M12.049,52.58c0.512-0.113,1.018,0.21,1.129,0.723c0.112,0.512-0.212,1.02-0.725,1.13  c-0.512,0.113-1.018-0.211-1.13-0.723C11.212,53.197,11.536,52.69,12.049,52.58z M10.557,56.714c0.513-0.113,1.018,0.21,1.131,0.723  c0.112,0.512-0.212,1.019-0.725,1.13c-0.512,0.113-1.018-0.211-1.129-0.723C9.72,57.331,10.044,56.824,10.557,56.714z M9.881,62.503  c-0.112-0.513,0.212-1.017,0.725-1.13c0.512-0.11,1.018,0.213,1.13,0.726c0.112,0.512-0.212,1.019-0.724,1.13  C10.499,63.342,9.993,63.015,9.881,62.503z M12.946,67.634c-0.512,0.113-1.018-0.213-1.13-0.726  c-0.112-0.512,0.212-1.016,0.725-1.129c0.513-0.111,1.018,0.213,1.13,0.725C13.782,67.017,13.459,67.521,12.946,67.634z   M15.664,71.172c-0.513,0.113-1.018-0.211-1.131-0.723c-0.112-0.513,0.212-1.02,0.725-1.13c0.513-0.113,1.018,0.21,1.13,0.723  C16.5,70.555,16.176,71.062,15.664,71.172z M19.404,72.692c-0.512,0.113-1.018-0.21-1.13-0.723c-0.112-0.513,0.212-1.02,0.724-1.13  c0.512-0.113,1.019,0.211,1.13,0.723C20.241,72.075,19.917,72.582,19.404,72.692z M23.857,72.957  c-0.512,0.113-1.019-0.211-1.13-0.723c-0.112-0.513,0.212-1.02,0.725-1.13c0.512-0.113,1.018,0.21,1.13,0.723  C24.693,72.339,24.369,72.846,23.857,72.957z M27.434,71.479c-0.513,0.113-1.019-0.214-1.13-0.726  c-0.112-0.513,0.212-1.017,0.725-1.13c0.512-0.11,1.018,0.213,1.13,0.726C28.27,70.861,27.946,71.368,27.434,71.479z M23.009,69.082  c-4.236,0.928-8.554-2.359-9.644-7.34c-1.09-4.982,1.46-9.771,5.697-10.699c4.237-0.925,8.554,2.362,9.645,7.343  C29.796,63.365,27.245,68.157,23.009,69.082z M30.291,67.974c-0.512,0.11-1.019-0.213-1.13-0.726  c-0.112-0.512,0.212-1.019,0.725-1.13c0.513-0.112,1.018,0.211,1.13,0.723C31.127,67.354,30.804,67.86,30.291,67.974z   M26.565,50.943c-0.512,0.11-1.019-0.213-1.13-0.726s0.212-1.017,0.725-1.13c0.512-0.11,1.018,0.213,1.13,0.726  S27.078,50.83,26.565,50.943z M28.823,53.688c-0.112-0.513,0.212-1.02,0.725-1.13c0.512-0.113,1.018,0.21,1.129,0.723  c0.112,0.512-0.211,1.019-0.724,1.132C29.441,54.524,28.936,54.2,28.823,53.688z M32.305,63.397c-0.512,0.113-1.018-0.21-1.13-0.722  c-0.112-0.513,0.212-1.02,0.725-1.133c0.513-0.11,1.018,0.213,1.13,0.726C33.141,62.78,32.817,63.287,32.305,63.397z M31.856,58.668  c-0.513,0.111-1.018-0.213-1.13-0.725c-0.113-0.513,0.211-1.017,0.724-1.13c0.512-0.113,1.018,0.213,1.13,0.726  C32.692,58.051,32.368,58.555,31.856,58.668z"/>
    <path xmlns="http://www.w3.org/2000/svg" d="M59.13,65.245l-31.863,9.513c6.019-2.225,9.416-9.802,7.675-17.739c-1.739-7.925-7.979-13.394-14.371-12.91l32.912-4.667  c0.18-0.041,0.359-0.069,0.553-0.083c5.563-0.87,11.169,3.81,12.674,10.712c0.124,0.553,0.221,1.119,0.276,1.672  C67.717,58.231,64.418,64.086,59.13,65.245z"/>
    <path xmlns="http://www.w3.org/2000/svg" d="M66.986,51.744l-7.553-2.058c-3.947-0.76-6.378-5.357-5.426-10.244c0-0.028,0.015-0.055,0.028-0.083  c5.563-0.87,11.169,3.81,12.674,10.712C66.834,50.625,66.931,51.191,66.986,51.744z"/>
    <path xmlns="http://www.w3.org/2000/svg" d="M39.294,44.28l18.333,4.988c-3.464-1.189-5.51-5.471-4.63-10.024c0.881-4.553,4.376-7.766,8.032-7.574l-18.872-2.204  c-3.298-0.637-6.612,2.163-7.401,6.253C33.964,39.811,35.996,43.644,39.294,44.28z"/>
    <path xmlns="http://www.w3.org/2000/svg" d="M94.722,43.943c-1.299-5.95-6.255-9.926-11.044-8.877l-1.836,0.262l-25.693,3.631c5.343-0.4,10.575,4.169,12.024,10.794  c0.181,0.817,0.289,1.618,0.332,2.402c0.386,5.703-2.333,10.783-6.751,12.412l26.632-7.938  C93.188,55.567,96.02,49.894,94.722,43.943z"/>
    <path xmlns="http://www.w3.org/2000/svg" d="M22.667,39.638l15.115,4.113c-2.856-0.979-4.542-4.51-3.817-8.265c0.706-3.649,3.449-6.255,6.371-6.25  c0.083,0,0.168,0.002,0.251,0.006l-15.559-1.818c-2.72-0.525-5.452,1.782-6.103,5.156C18.272,35.953,19.948,39.113,22.667,39.638z"/>
    <path xmlns="http://www.w3.org/2000/svg" d="M9.249,35.914l12.253,3.333c-2.315-0.793-3.682-3.654-3.094-6.699c0.589-3.043,2.925-5.19,5.368-5.062l-12.613-1.474  c-2.205-0.425-4.419,1.445-4.946,4.181C5.687,32.927,7.044,35.488,9.249,35.914z"/>
    <path xmlns="http://www.w3.org/2000/svg" d="M22.216,24.634L10.86,25.82c2.199-0.087,4.276,1.868,4.772,4.61c0.495,2.742-0.765,5.301-2.855,5.987l4.73-1.226l1.8-8.113  l4.078,0.416l-2.84,6.91l3.283-0.849c1.987-0.358,3.235-2.648,2.789-5.111C26.172,25.98,24.201,24.274,22.216,24.634z"/>
    <path xmlns="http://www.w3.org/2000/svg" d="M59.247,49.49l5.02,1.367L54.92,39.248l8.001-1.245l7.897,14.637l10.189,2.771c-4.109-1.407-6.536-6.49-5.495-11.896  c1.046-5.405,5.196-9.219,9.537-8.991l-22.402-2.617c-3.916-0.756-7.85,2.567-8.787,7.422C52.921,44.186,55.333,48.735,59.247,49.49  z"/>
  </g>
</svg>